<mxfile host="app.diagrams.net" modified="2021-10-04T20:43:17.957Z" agent="5.0 (Macintosh; Intel Mac OS X 10_15_7) AppleWebKit/537.36 (KHTML, like Gecko) Chrome/92.0.4515.159 Safari/537.36" etag="h3aUwrxY5XvDBQ5Jnzpe" version="15.1.2" type="github">
  <diagram id="X_OOPp4SAURcgkI0Tyxi" name="Page-1">
    <mxGraphModel dx="2103" dy="595" grid="1" gridSize="10" guides="1" tooltips="1" connect="1" arrows="1" fold="1" page="1" pageScale="1" pageWidth="850" pageHeight="1100" math="0" shadow="0">
      <root>
        <mxCell id="0" />
        <mxCell id="1" parent="0" />
        <mxCell id="OHjqlBQJEFkPsQ11QvOy-43" value="" style="edgeStyle=orthogonalEdgeStyle;rounded=0;orthogonalLoop=1;jettySize=auto;html=1;exitX=1;exitY=0.5;exitDx=0;exitDy=0;endArrow=ERmany;endFill=0;" edge="1" parent="1" source="OHjqlBQJEFkPsQ11QvOy-18" target="OHjqlBQJEFkPsQ11QvOy-30">
          <mxGeometry relative="1" as="geometry" />
        </mxCell>
        <mxCell id="OHjqlBQJEFkPsQ11QvOy-17" value="User" style="shape=table;startSize=30;container=1;collapsible=1;childLayout=tableLayout;fixedRows=1;rowLines=0;fontStyle=1;align=center;resizeLast=1;" vertex="1" parent="1">
          <mxGeometry x="30" y="150" width="260" height="150" as="geometry" />
        </mxCell>
        <mxCell id="OHjqlBQJEFkPsQ11QvOy-18" value="" style="shape=partialRectangle;collapsible=0;dropTarget=0;pointerEvents=0;fillColor=none;top=0;left=0;bottom=1;right=0;points=[[0,0.5],[1,0.5]];portConstraint=eastwest;" vertex="1" parent="OHjqlBQJEFkPsQ11QvOy-17">
          <mxGeometry y="30" width="260" height="30" as="geometry" />
        </mxCell>
        <mxCell id="OHjqlBQJEFkPsQ11QvOy-19" value="PK" style="shape=partialRectangle;connectable=0;fillColor=none;top=0;left=0;bottom=0;right=0;fontStyle=1;overflow=hidden;" vertex="1" parent="OHjqlBQJEFkPsQ11QvOy-18">
          <mxGeometry width="30" height="30" as="geometry" />
        </mxCell>
        <mxCell id="OHjqlBQJEFkPsQ11QvOy-20" value="ID" style="shape=partialRectangle;connectable=0;fillColor=none;top=0;left=0;bottom=0;right=0;align=left;spacingLeft=6;fontStyle=5;overflow=hidden;" vertex="1" parent="OHjqlBQJEFkPsQ11QvOy-18">
          <mxGeometry x="30" width="230" height="30" as="geometry" />
        </mxCell>
        <mxCell id="OHjqlBQJEFkPsQ11QvOy-21" value="" style="shape=partialRectangle;collapsible=0;dropTarget=0;pointerEvents=0;fillColor=none;top=0;left=0;bottom=0;right=0;points=[[0,0.5],[1,0.5]];portConstraint=eastwest;" vertex="1" parent="OHjqlBQJEFkPsQ11QvOy-17">
          <mxGeometry y="60" width="260" height="30" as="geometry" />
        </mxCell>
        <mxCell id="OHjqlBQJEFkPsQ11QvOy-22" value="" style="shape=partialRectangle;connectable=0;fillColor=none;top=0;left=0;bottom=0;right=0;editable=1;overflow=hidden;" vertex="1" parent="OHjqlBQJEFkPsQ11QvOy-21">
          <mxGeometry width="30" height="30" as="geometry" />
        </mxCell>
        <mxCell id="OHjqlBQJEFkPsQ11QvOy-23" value="username VAR CHAR225" style="shape=partialRectangle;connectable=0;fillColor=none;top=0;left=0;bottom=0;right=0;align=left;spacingLeft=6;overflow=hidden;" vertex="1" parent="OHjqlBQJEFkPsQ11QvOy-21">
          <mxGeometry x="30" width="230" height="30" as="geometry" />
        </mxCell>
        <mxCell id="OHjqlBQJEFkPsQ11QvOy-24" value="" style="shape=partialRectangle;collapsible=0;dropTarget=0;pointerEvents=0;fillColor=none;top=0;left=0;bottom=0;right=0;points=[[0,0.5],[1,0.5]];portConstraint=eastwest;" vertex="1" parent="OHjqlBQJEFkPsQ11QvOy-17">
          <mxGeometry y="90" width="260" height="30" as="geometry" />
        </mxCell>
        <mxCell id="OHjqlBQJEFkPsQ11QvOy-25" value="" style="shape=partialRectangle;connectable=0;fillColor=none;top=0;left=0;bottom=0;right=0;editable=1;overflow=hidden;" vertex="1" parent="OHjqlBQJEFkPsQ11QvOy-24">
          <mxGeometry width="30" height="30" as="geometry" />
        </mxCell>
        <mxCell id="OHjqlBQJEFkPsQ11QvOy-26" value="password(hashed) VARCHAR255" style="shape=partialRectangle;connectable=0;fillColor=none;top=0;left=0;bottom=0;right=0;align=left;spacingLeft=6;overflow=hidden;" vertex="1" parent="OHjqlBQJEFkPsQ11QvOy-24">
          <mxGeometry x="30" width="230" height="30" as="geometry" />
        </mxCell>
        <mxCell id="OHjqlBQJEFkPsQ11QvOy-27" value="" style="shape=partialRectangle;collapsible=0;dropTarget=0;pointerEvents=0;fillColor=none;top=0;left=0;bottom=0;right=0;points=[[0,0.5],[1,0.5]];portConstraint=eastwest;" vertex="1" parent="OHjqlBQJEFkPsQ11QvOy-17">
          <mxGeometry y="120" width="260" height="30" as="geometry" />
        </mxCell>
        <mxCell id="OHjqlBQJEFkPsQ11QvOy-28" value="" style="shape=partialRectangle;connectable=0;fillColor=none;top=0;left=0;bottom=0;right=0;editable=1;overflow=hidden;" vertex="1" parent="OHjqlBQJEFkPsQ11QvOy-27">
          <mxGeometry width="30" height="30" as="geometry" />
        </mxCell>
        <mxCell id="OHjqlBQJEFkPsQ11QvOy-29" value="" style="shape=partialRectangle;connectable=0;fillColor=none;top=0;left=0;bottom=0;right=0;align=left;spacingLeft=6;overflow=hidden;" vertex="1" parent="OHjqlBQJEFkPsQ11QvOy-27">
          <mxGeometry x="30" width="230" height="30" as="geometry" />
        </mxCell>
        <mxCell id="OHjqlBQJEFkPsQ11QvOy-30" value="Friends" style="shape=table;startSize=30;container=1;collapsible=1;childLayout=tableLayout;fixedRows=1;rowLines=0;fontStyle=1;align=center;resizeLast=1;" vertex="1" parent="1">
          <mxGeometry x="370" y="150" width="260" height="150" as="geometry" />
        </mxCell>
        <mxCell id="OHjqlBQJEFkPsQ11QvOy-31" value="" style="shape=partialRectangle;collapsible=0;dropTarget=0;pointerEvents=0;fillColor=none;top=0;left=0;bottom=1;right=0;points=[[0,0.5],[1,0.5]];portConstraint=eastwest;" vertex="1" parent="OHjqlBQJEFkPsQ11QvOy-30">
          <mxGeometry y="30" width="260" height="30" as="geometry" />
        </mxCell>
        <mxCell id="OHjqlBQJEFkPsQ11QvOy-32" value="PK" style="shape=partialRectangle;connectable=0;fillColor=none;top=0;left=0;bottom=0;right=0;fontStyle=1;overflow=hidden;" vertex="1" parent="OHjqlBQJEFkPsQ11QvOy-31">
          <mxGeometry width="30" height="30" as="geometry" />
        </mxCell>
        <mxCell id="OHjqlBQJEFkPsQ11QvOy-33" value="ID" style="shape=partialRectangle;connectable=0;fillColor=none;top=0;left=0;bottom=0;right=0;align=left;spacingLeft=6;fontStyle=5;overflow=hidden;" vertex="1" parent="OHjqlBQJEFkPsQ11QvOy-31">
          <mxGeometry x="30" width="230" height="30" as="geometry" />
        </mxCell>
        <mxCell id="OHjqlBQJEFkPsQ11QvOy-34" value="" style="shape=partialRectangle;collapsible=0;dropTarget=0;pointerEvents=0;fillColor=none;top=0;left=0;bottom=0;right=0;points=[[0,0.5],[1,0.5]];portConstraint=eastwest;" vertex="1" parent="OHjqlBQJEFkPsQ11QvOy-30">
          <mxGeometry y="60" width="260" height="30" as="geometry" />
        </mxCell>
        <mxCell id="OHjqlBQJEFkPsQ11QvOy-35" value="" style="shape=partialRectangle;connectable=0;fillColor=none;top=0;left=0;bottom=0;right=0;editable=1;overflow=hidden;" vertex="1" parent="OHjqlBQJEFkPsQ11QvOy-34">
          <mxGeometry width="30" height="30" as="geometry" />
        </mxCell>
        <mxCell id="OHjqlBQJEFkPsQ11QvOy-36" value="userId INT" style="shape=partialRectangle;connectable=0;fillColor=none;top=0;left=0;bottom=0;right=0;align=left;spacingLeft=6;overflow=hidden;" vertex="1" parent="OHjqlBQJEFkPsQ11QvOy-34">
          <mxGeometry x="30" width="230" height="30" as="geometry" />
        </mxCell>
        <mxCell id="OHjqlBQJEFkPsQ11QvOy-37" value="" style="shape=partialRectangle;collapsible=0;dropTarget=0;pointerEvents=0;fillColor=none;top=0;left=0;bottom=0;right=0;points=[[0,0.5],[1,0.5]];portConstraint=eastwest;" vertex="1" parent="OHjqlBQJEFkPsQ11QvOy-30">
          <mxGeometry y="90" width="260" height="30" as="geometry" />
        </mxCell>
        <mxCell id="OHjqlBQJEFkPsQ11QvOy-38" value="" style="shape=partialRectangle;connectable=0;fillColor=none;top=0;left=0;bottom=0;right=0;editable=1;overflow=hidden;" vertex="1" parent="OHjqlBQJEFkPsQ11QvOy-37">
          <mxGeometry width="30" height="30" as="geometry" />
        </mxCell>
        <mxCell id="OHjqlBQJEFkPsQ11QvOy-39" value="friendId INT" style="shape=partialRectangle;connectable=0;fillColor=none;top=0;left=0;bottom=0;right=0;align=left;spacingLeft=6;overflow=hidden;" vertex="1" parent="OHjqlBQJEFkPsQ11QvOy-37">
          <mxGeometry x="30" width="230" height="30" as="geometry" />
        </mxCell>
        <mxCell id="OHjqlBQJEFkPsQ11QvOy-40" value="" style="shape=partialRectangle;collapsible=0;dropTarget=0;pointerEvents=0;fillColor=none;top=0;left=0;bottom=0;right=0;points=[[0,0.5],[1,0.5]];portConstraint=eastwest;" vertex="1" parent="OHjqlBQJEFkPsQ11QvOy-30">
          <mxGeometry y="120" width="260" height="30" as="geometry" />
        </mxCell>
        <mxCell id="OHjqlBQJEFkPsQ11QvOy-41" value="" style="shape=partialRectangle;connectable=0;fillColor=none;top=0;left=0;bottom=0;right=0;editable=1;overflow=hidden;" vertex="1" parent="OHjqlBQJEFkPsQ11QvOy-40">
          <mxGeometry width="30" height="30" as="geometry" />
        </mxCell>
        <mxCell id="OHjqlBQJEFkPsQ11QvOy-42" value="" style="shape=partialRectangle;connectable=0;fillColor=none;top=0;left=0;bottom=0;right=0;align=left;spacingLeft=6;overflow=hidden;" vertex="1" parent="OHjqlBQJEFkPsQ11QvOy-40">
          <mxGeometry x="30" width="230" height="30" as="geometry" />
        </mxCell>
        <mxCell id="OHjqlBQJEFkPsQ11QvOy-53" value="Group" style="shape=table;startSize=30;container=1;collapsible=1;childLayout=tableLayout;fixedRows=1;rowLines=0;fontStyle=1;align=center;resizeLast=1;" vertex="1" parent="1">
          <mxGeometry x="30" y="330" width="180" height="130" as="geometry" />
        </mxCell>
        <mxCell id="OHjqlBQJEFkPsQ11QvOy-54" value="" style="shape=partialRectangle;collapsible=0;dropTarget=0;pointerEvents=0;fillColor=none;top=0;left=0;bottom=1;right=0;points=[[0,0.5],[1,0.5]];portConstraint=eastwest;" vertex="1" parent="OHjqlBQJEFkPsQ11QvOy-53">
          <mxGeometry y="30" width="180" height="30" as="geometry" />
        </mxCell>
        <mxCell id="OHjqlBQJEFkPsQ11QvOy-55" value="PK" style="shape=partialRectangle;connectable=0;fillColor=none;top=0;left=0;bottom=0;right=0;fontStyle=1;overflow=hidden;" vertex="1" parent="OHjqlBQJEFkPsQ11QvOy-54">
          <mxGeometry width="30" height="30" as="geometry" />
        </mxCell>
        <mxCell id="OHjqlBQJEFkPsQ11QvOy-56" value="UniqueID" style="shape=partialRectangle;connectable=0;fillColor=none;top=0;left=0;bottom=0;right=0;align=left;spacingLeft=6;fontStyle=5;overflow=hidden;" vertex="1" parent="OHjqlBQJEFkPsQ11QvOy-54">
          <mxGeometry x="30" width="150" height="30" as="geometry" />
        </mxCell>
        <mxCell id="OHjqlBQJEFkPsQ11QvOy-57" value="" style="shape=partialRectangle;collapsible=0;dropTarget=0;pointerEvents=0;fillColor=none;top=0;left=0;bottom=0;right=0;points=[[0,0.5],[1,0.5]];portConstraint=eastwest;" vertex="1" parent="OHjqlBQJEFkPsQ11QvOy-53">
          <mxGeometry y="60" width="180" height="30" as="geometry" />
        </mxCell>
        <mxCell id="OHjqlBQJEFkPsQ11QvOy-58" value="" style="shape=partialRectangle;connectable=0;fillColor=none;top=0;left=0;bottom=0;right=0;editable=1;overflow=hidden;" vertex="1" parent="OHjqlBQJEFkPsQ11QvOy-57">
          <mxGeometry width="30" height="30" as="geometry" />
        </mxCell>
        <mxCell id="OHjqlBQJEFkPsQ11QvOy-59" value="userIds INT[]" style="shape=partialRectangle;connectable=0;fillColor=none;top=0;left=0;bottom=0;right=0;align=left;spacingLeft=6;overflow=hidden;" vertex="1" parent="OHjqlBQJEFkPsQ11QvOy-57">
          <mxGeometry x="30" width="150" height="30" as="geometry" />
        </mxCell>
        <mxCell id="OHjqlBQJEFkPsQ11QvOy-60" value="" style="shape=partialRectangle;collapsible=0;dropTarget=0;pointerEvents=0;fillColor=none;top=0;left=0;bottom=0;right=0;points=[[0,0.5],[1,0.5]];portConstraint=eastwest;" vertex="1" parent="OHjqlBQJEFkPsQ11QvOy-53">
          <mxGeometry y="90" width="180" height="30" as="geometry" />
        </mxCell>
        <mxCell id="OHjqlBQJEFkPsQ11QvOy-61" value="" style="shape=partialRectangle;connectable=0;fillColor=none;top=0;left=0;bottom=0;right=0;editable=1;overflow=hidden;" vertex="1" parent="OHjqlBQJEFkPsQ11QvOy-60">
          <mxGeometry width="30" height="30" as="geometry" />
        </mxCell>
        <mxCell id="OHjqlBQJEFkPsQ11QvOy-62" value="groupname VARCHAR255" style="shape=partialRectangle;connectable=0;fillColor=none;top=0;left=0;bottom=0;right=0;align=left;spacingLeft=6;overflow=hidden;" vertex="1" parent="OHjqlBQJEFkPsQ11QvOy-60">
          <mxGeometry x="30" width="150" height="30" as="geometry" />
        </mxCell>
        <mxCell id="OHjqlBQJEFkPsQ11QvOy-66" value="" style="fontSize=12;html=1;endArrow=none;endFill=0;exitX=0;exitY=0.5;exitDx=0;exitDy=0;entryX=0;entryY=0.5;entryDx=0;entryDy=0;startArrow=ERzeroToMany;startFill=1;" edge="1" parent="1" source="OHjqlBQJEFkPsQ11QvOy-57" target="OHjqlBQJEFkPsQ11QvOy-18">
          <mxGeometry width="100" height="100" relative="1" as="geometry">
            <mxPoint x="410" y="360" as="sourcePoint" />
            <mxPoint x="20" y="200" as="targetPoint" />
            <Array as="points">
              <mxPoint x="-60" y="405" />
              <mxPoint x="-60" y="310" />
              <mxPoint x="-60" y="195" />
            </Array>
          </mxGeometry>
        </mxCell>
        <mxCell id="OHjqlBQJEFkPsQ11QvOy-67" value="Tab" style="shape=table;startSize=30;container=1;collapsible=1;childLayout=tableLayout;fixedRows=1;rowLines=0;fontStyle=1;align=center;resizeLast=1;" vertex="1" parent="1">
          <mxGeometry x="350" y="340" width="180" height="160" as="geometry" />
        </mxCell>
        <mxCell id="OHjqlBQJEFkPsQ11QvOy-68" value="" style="shape=partialRectangle;collapsible=0;dropTarget=0;pointerEvents=0;fillColor=none;top=0;left=0;bottom=1;right=0;points=[[0,0.5],[1,0.5]];portConstraint=eastwest;" vertex="1" parent="OHjqlBQJEFkPsQ11QvOy-67">
          <mxGeometry y="30" width="180" height="30" as="geometry" />
        </mxCell>
        <mxCell id="OHjqlBQJEFkPsQ11QvOy-69" value="PK" style="shape=partialRectangle;connectable=0;fillColor=none;top=0;left=0;bottom=0;right=0;fontStyle=1;overflow=hidden;" vertex="1" parent="OHjqlBQJEFkPsQ11QvOy-68">
          <mxGeometry width="30" height="30" as="geometry" />
        </mxCell>
        <mxCell id="OHjqlBQJEFkPsQ11QvOy-70" value="UniqueID" style="shape=partialRectangle;connectable=0;fillColor=none;top=0;left=0;bottom=0;right=0;align=left;spacingLeft=6;fontStyle=5;overflow=hidden;" vertex="1" parent="OHjqlBQJEFkPsQ11QvOy-68">
          <mxGeometry x="30" width="150" height="30" as="geometry" />
        </mxCell>
        <mxCell id="OHjqlBQJEFkPsQ11QvOy-71" value="" style="shape=partialRectangle;collapsible=0;dropTarget=0;pointerEvents=0;fillColor=none;top=0;left=0;bottom=0;right=0;points=[[0,0.5],[1,0.5]];portConstraint=eastwest;" vertex="1" parent="OHjqlBQJEFkPsQ11QvOy-67">
          <mxGeometry y="60" width="180" height="30" as="geometry" />
        </mxCell>
        <mxCell id="OHjqlBQJEFkPsQ11QvOy-72" value="" style="shape=partialRectangle;connectable=0;fillColor=none;top=0;left=0;bottom=0;right=0;editable=1;overflow=hidden;" vertex="1" parent="OHjqlBQJEFkPsQ11QvOy-71">
          <mxGeometry width="30" height="30" as="geometry" />
        </mxCell>
        <mxCell id="OHjqlBQJEFkPsQ11QvOy-73" value="groupId INT" style="shape=partialRectangle;connectable=0;fillColor=none;top=0;left=0;bottom=0;right=0;align=left;spacingLeft=6;overflow=hidden;" vertex="1" parent="OHjqlBQJEFkPsQ11QvOy-71">
          <mxGeometry x="30" width="150" height="30" as="geometry" />
        </mxCell>
        <mxCell id="OHjqlBQJEFkPsQ11QvOy-74" value="" style="shape=partialRectangle;collapsible=0;dropTarget=0;pointerEvents=0;fillColor=none;top=0;left=0;bottom=0;right=0;points=[[0,0.5],[1,0.5]];portConstraint=eastwest;" vertex="1" parent="OHjqlBQJEFkPsQ11QvOy-67">
          <mxGeometry y="90" width="180" height="30" as="geometry" />
        </mxCell>
        <mxCell id="OHjqlBQJEFkPsQ11QvOy-75" value="" style="shape=partialRectangle;connectable=0;fillColor=none;top=0;left=0;bottom=0;right=0;editable=1;overflow=hidden;" vertex="1" parent="OHjqlBQJEFkPsQ11QvOy-74">
          <mxGeometry width="30" height="30" as="geometry" />
        </mxCell>
        <mxCell id="OHjqlBQJEFkPsQ11QvOy-76" value="debtorId" style="shape=partialRectangle;connectable=0;fillColor=none;top=0;left=0;bottom=0;right=0;align=left;spacingLeft=6;overflow=hidden;" vertex="1" parent="OHjqlBQJEFkPsQ11QvOy-74">
          <mxGeometry x="30" width="150" height="30" as="geometry" />
        </mxCell>
        <mxCell id="OHjqlBQJEFkPsQ11QvOy-77" value="" style="shape=partialRectangle;collapsible=0;dropTarget=0;pointerEvents=0;fillColor=none;top=0;left=0;bottom=0;right=0;points=[[0,0.5],[1,0.5]];portConstraint=eastwest;" vertex="1" parent="OHjqlBQJEFkPsQ11QvOy-67">
          <mxGeometry y="120" width="180" height="30" as="geometry" />
        </mxCell>
        <mxCell id="OHjqlBQJEFkPsQ11QvOy-78" value="" style="shape=partialRectangle;connectable=0;fillColor=none;top=0;left=0;bottom=0;right=0;editable=1;overflow=hidden;" vertex="1" parent="OHjqlBQJEFkPsQ11QvOy-77">
          <mxGeometry width="30" height="30" as="geometry" />
        </mxCell>
        <mxCell id="OHjqlBQJEFkPsQ11QvOy-79" value="debteeId" style="shape=partialRectangle;connectable=0;fillColor=none;top=0;left=0;bottom=0;right=0;align=left;spacingLeft=6;overflow=hidden;" vertex="1" parent="OHjqlBQJEFkPsQ11QvOy-77">
          <mxGeometry x="30" width="150" height="30" as="geometry" />
        </mxCell>
        <mxCell id="OHjqlBQJEFkPsQ11QvOy-81" value="" style="edgeStyle=entityRelationEdgeStyle;fontSize=12;html=1;endArrow=ERmandOne;startArrow=ERmandOne;exitX=1;exitY=0.5;exitDx=0;exitDy=0;entryX=0;entryY=0.5;entryDx=0;entryDy=0;" edge="1" parent="1" source="OHjqlBQJEFkPsQ11QvOy-54" target="OHjqlBQJEFkPsQ11QvOy-71">
          <mxGeometry width="100" height="100" relative="1" as="geometry">
            <mxPoint x="410" y="360" as="sourcePoint" />
            <mxPoint x="510" y="260" as="targetPoint" />
          </mxGeometry>
        </mxCell>
        <mxCell id="OHjqlBQJEFkPsQ11QvOy-82" value="" style="edgeStyle=orthogonalEdgeStyle;fontSize=12;html=1;endArrow=ERzeroToMany;endFill=1;exitX=0;exitY=0.5;exitDx=0;exitDy=0;entryX=0;entryY=0.5;entryDx=0;entryDy=0;" edge="1" parent="1" source="OHjqlBQJEFkPsQ11QvOy-74" target="OHjqlBQJEFkPsQ11QvOy-18">
          <mxGeometry width="100" height="100" relative="1" as="geometry">
            <mxPoint x="410" y="360" as="sourcePoint" />
            <mxPoint x="-30" y="180" as="targetPoint" />
            <Array as="points">
              <mxPoint x="300" y="445" />
              <mxPoint x="300" y="490" />
              <mxPoint x="-110" y="490" />
              <mxPoint x="-110" y="195" />
            </Array>
          </mxGeometry>
        </mxCell>
        <mxCell id="OHjqlBQJEFkPsQ11QvOy-83" value="" style="edgeStyle=orthogonalEdgeStyle;fontSize=12;html=1;endArrow=ERzeroToMany;endFill=1;exitX=0;exitY=0.5;exitDx=0;exitDy=0;entryX=0;entryY=0.5;entryDx=0;entryDy=0;" edge="1" parent="1" source="OHjqlBQJEFkPsQ11QvOy-77" target="OHjqlBQJEFkPsQ11QvOy-18">
          <mxGeometry width="100" height="100" relative="1" as="geometry">
            <mxPoint x="360" y="455" as="sourcePoint" />
            <mxPoint x="10" y="205" as="targetPoint" />
            <Array as="points">
              <mxPoint x="310" y="475" />
              <mxPoint x="310" y="500" />
              <mxPoint x="-130" y="500" />
              <mxPoint x="-130" y="195" />
            </Array>
          </mxGeometry>
        </mxCell>
      </root>
    </mxGraphModel>
  </diagram>
</mxfile>
